<?xml version="1.0" encoding="UTF-8"?>
<svg version="1.1" xmlns="http://www.w3.org/2000/svg" width="512" height="512">
<path d="M0 0 C1.6713501 -0.02767456 1.6713501 -0.02767456 3.37646484 -0.0559082 C12.88756644 0.01654777 21.07937378 2.18733967 28.15625 8.796875 C35.03030348 16.44250591 36.98919486 24.20198536 36.95492554 34.26556396 C36.95945665 35.24368742 36.96398776 36.22181088 36.96865618 37.22957444 C36.98130778 40.50433475 36.9796793 43.77892891 36.97802734 47.05371094 C36.98401214 49.4028749 36.99081758 51.75203689 36.99838257 54.10119629 C37.01605548 60.48148475 37.02073852 66.86171957 37.02201414 73.24203014 C37.0236742 77.89828941 37.02947363 82.55453673 37.0356871 87.21079178 C37.05229272 99.73662171 37.0597722 112.26242323 37.05834763 124.78826377 C37.05826772 125.49912305 37.0581878 126.20998234 37.05810547 126.94238281 C37.05802371 127.65411424 37.05794195 128.36584568 37.05785771 129.09914473 C37.05704517 140.62834701 37.07617593 152.15741854 37.1043822 163.68658301 C37.13314258 175.53614059 37.14692073 187.38563447 37.14519465 199.23522782 C37.14453179 205.88322455 37.15036965 212.5311008 37.17155075 219.17906952 C37.19093399 225.43358496 37.19105667 231.68781132 37.17651749 237.94233704 C37.17442837 240.23442762 37.17913635 242.5265363 37.1912384 244.81859589 C37.20672193 247.95490228 37.19736148 251.09021577 37.18197632 254.22650146 C37.19226344 255.12710792 37.20255057 256.02771438 37.21314943 256.95561194 C37.11885717 265.69249051 34.41191904 273.5217079 28.390625 279.96875 C21.81546883 285.8803583 14.7023081 288.5307572 5.91796875 289.2109375 C4.6252002 289.31897705 3.33243164 289.4270166 2.00048828 289.53833008 C1.32632874 289.59276276 0.65216919 289.64719543 -0.04241943 289.70327759 C-12.06775161 290.69484501 -23.73307878 291.96586415 -35.3125 295.5 C-35.9828125 295.69932129 -36.653125 295.89864258 -37.34375 296.10400391 C-63.86704482 304.13892927 -87.08616124 319.8200524 -104.921875 340.953125 C-105.38078125 341.46359375 -105.8396875 341.9740625 -106.3125 342.5 C-106.6425 342.5 -106.9725 342.5 -107.3125 342.5 C-107.61014917 304.07005711 -107.83917216 265.64028804 -107.97634928 227.2094254 C-107.99260819 222.67086505 -108.00943441 218.13230696 -108.02661133 213.59375 C-108.03002136 212.69021683 -108.0334314 211.78668366 -108.03694477 210.85577069 C-108.09349029 196.23165697 -108.19597646 181.60820856 -108.31548635 166.98448934 C-108.43711918 151.97565787 -108.50927696 136.96717447 -108.53565043 121.95787036 C-108.55347622 112.69817578 -108.60973912 103.44036165 -108.71541407 94.18124609 C-108.78421162 87.82914489 -108.80488478 81.47801361 -108.78801791 75.12556703 C-108.77970091 71.46135722 -108.79230399 67.80042836 -108.86217117 64.13680458 C-109.28140836 41.02744772 -109.28140836 41.02744772 -104.50180626 35.61736679 C-101.42180448 32.91336952 -98.043135 31.18934378 -94.3125 29.5 C-92.56773439 28.41383019 -90.83291769 27.31116521 -89.1171875 26.1796875 C-87.48170289 25.23130866 -85.83833134 24.29640557 -84.1875 23.375 C-82.85090332 22.62271118 -82.85090332 22.62271118 -81.48730469 21.85522461 C-56.30023367 7.95867915 -28.81573984 0.27832712 0 0 Z " fill="#E98800" transform="translate(379.3125,79.5)"/>
<path d="M0 0 C0.71591309 0.40557129 1.43182617 0.81114258 2.16943359 1.22900391 C3.59763175 2.07342729 4.99969092 2.96370185 6.37139606 3.89709663 C9.02952025 5.66695621 9.02952025 5.66695621 12.24962902 7.0316906 C16.43669709 9.35277434 19.52301535 11.40252475 22 15.5625 C24.3847629 24.17425034 23.67780041 33.4805947 23.50885308 42.3396821 C23.45244752 46.05050455 23.47172893 49.76105239 23.48158264 53.47218323 C23.48838319 59.89356298 23.44777346 66.31321906 23.37449074 72.73416519 C23.26861049 82.0173364 23.23495964 91.29967841 23.21864685 100.58338796 C23.19022954 115.64688421 23.10381271 130.7094627 22.98071289 145.77246094 C22.86129365 160.40034407 22.76932007 175.02797749 22.71411133 189.65625 C22.70898822 191.00989864 22.70898822 191.00989864 22.70376161 192.39089371 C22.68679551 196.91835939 22.67036745 201.44582683 22.65420687 205.97329545 C22.51954844 243.50367815 22.29067489 281.03301747 22 318.5625 C19.42539713 315.9951685 16.86428713 313.42139853 14.34375 310.80078125 C-13.49709083 281.9902858 -49.84355133 267.31812886 -89.65405273 265.42114258 C-99.48310428 264.83249114 -108.27052888 262.04731992 -115 254.5625 C-120.69135001 246.99421541 -122.29922577 240.13543817 -122.26742554 230.79693604 C-122.27195665 229.81881258 -122.27648776 228.84068912 -122.28115618 227.83292556 C-122.29380778 224.55816525 -122.2921793 221.28357109 -122.29052734 218.00878906 C-122.29651214 215.6596251 -122.30331758 213.31046311 -122.31088257 210.96130371 C-122.32855548 204.58101525 -122.33323852 198.20078043 -122.33451414 191.82046986 C-122.3361742 187.16421059 -122.34197363 182.50796327 -122.3481871 177.85170822 C-122.36479272 165.32587829 -122.3722722 152.80007677 -122.37084763 140.27423623 C-122.37076772 139.56337695 -122.3706878 138.85251766 -122.37060547 138.12011719 C-122.37052371 137.40838576 -122.37044195 136.69665432 -122.37035771 135.96335527 C-122.36954517 124.43415299 -122.38867593 112.90508146 -122.4168822 101.37591699 C-122.44564258 89.52635941 -122.45942073 77.67686553 -122.45769465 65.82727218 C-122.45703179 59.17927545 -122.46286965 52.5313992 -122.48405075 45.88343048 C-122.50343399 39.62891504 -122.50355667 33.37468868 -122.48901749 27.12016296 C-122.48692837 24.82807238 -122.49163635 22.5359637 -122.5037384 20.24390411 C-122.51922193 17.10759772 -122.50986148 13.97228423 -122.49447632 10.83599854 C-122.50476344 9.93539208 -122.51505057 9.03478562 -122.52564943 8.10688806 C-122.43135717 -0.62999051 -119.72441904 -8.4592079 -113.703125 -14.90625 C-85.96371013 -39.84627438 -27.63660224 -15.77226232 0 0 Z " fill="#DA5B00" transform="translate(218,103.4375)"/>
<path d="M0 0 C2.23379172 1.06928799 4.46168362 2.14870582 6.6875 3.234375 C7.31333984 3.53263184 7.93917969 3.83088867 8.58398438 4.13818359 C19.93471089 9.70954805 26.28383538 19.40488016 30.5563364 31.04400158 C32.23878406 36.17483072 32.42291934 40.89977161 32.38768005 46.26472473 C32.39575836 47.75813945 32.39575836 47.75813945 32.40399987 49.28172415 C32.41823862 52.59785616 32.41118565 55.91358668 32.40405273 59.22973633 C32.40975847 61.6155072 32.41672352 64.00127534 32.42485046 66.38703918 C32.44091604 72.183148 32.44288666 77.97913222 32.43763756 83.77525858 C32.43358659 88.4898644 32.4350504 93.20443828 32.44038582 97.91904259 C32.44113424 98.59154665 32.44188266 99.2640507 32.44265376 99.95693367 C32.44418534 101.3233991 32.44572369 102.68986452 32.44726873 104.05632993 C32.4609798 116.85560862 32.45556628 129.6548261 32.44408352 142.45410337 C32.43415626 154.14343172 32.44708545 165.83260166 32.47101771 177.52190558 C32.49544768 189.54559684 32.5050068 201.56921445 32.49836498 213.59293002 C32.49488093 220.3348407 32.4970506 227.07662968 32.51461601 233.8185215 C32.53011549 240.16091748 32.52609586 246.50301184 32.50731087 252.84539604 C32.50363315 255.1672828 32.50670948 257.48919206 32.51719666 259.81105804 C32.59502686 278.47401028 30.87722365 291.53371767 17.6875 305.75 C6.81913063 316.0361353 -5.18449133 318.46641764 -19.71142578 318.34057617 C-21.06263714 318.33972813 -22.41384987 318.34020849 -23.76506042 318.34190369 C-27.40290576 318.34275817 -31.04044933 318.32522216 -34.67822504 318.30418181 C-38.49118645 318.28532282 -42.30415613 318.28365735 -46.11715698 318.28010559 C-53.32403942 318.27081204 -60.53078398 318.24623505 -67.73760593 318.21605712 C-75.94806114 318.18242892 -84.15852321 318.16600602 -92.36903024 318.15097082 C-109.24609967 318.11968281 -126.12303522 318.06697517 -143 318 C-142.20883789 317.20940186 -141.41767578 316.41880371 -140.60253906 315.60424805 C-139.18376656 314.18454389 -137.7668361 312.76295003 -136.359375 311.33203125 C-117.36795662 293.40081341 -91.14926483 286.7416404 -65.875 285.0625 C-56.69409605 284.44805311 -48.52764431 283.66931622 -40 280 C-39.12988281 279.64035156 -38.25976562 279.28070313 -37.36328125 278.91015625 C-22.16780863 271.99889228 -10.97753639 259.20255266 -4.75 243.875 C-0.11932859 229.74495801 -0.69560857 214.49414481 -0.68115234 199.8046875 C-0.67183457 197.61515948 -0.66166321 195.42563496 -0.65071106 193.2361145 C-0.62360533 187.34056316 -0.60831979 181.44503545 -0.59528303 175.54943848 C-0.57956674 169.37017126 -0.55280397 163.19095171 -0.5272522 157.01171875 C-0.48061402 145.33208363 -0.44379784 133.6524394 -0.41057932 121.97275925 C-0.37225175 108.66668492 -0.32286971 95.36066396 -0.27259517 82.05463028 C-0.16949802 54.70312254 -0.08016589 27.35158389 0 0 Z " fill="#EB8B00" transform="translate(448,114)"/>
<path d="M0 0 C0.00331015 1.12937988 0.00662029 2.25875977 0.01003075 3.42236328 C0.0911605 30.9504935 0.1835171 58.47856879 0.28752708 86.00662231 C0.33756856 99.31918345 0.38401224 112.63173311 0.421875 125.94433594 C0.45489988 137.55267959 0.49478856 149.1609763 0.54279006 160.76926804 C0.56795098 166.91111786 0.58976259 173.05293697 0.60334396 179.19482422 C0.61625926 184.98632325 0.63841396 190.77771637 0.66738319 196.56915665 C0.67638548 198.6845497 0.68213181 200.79995976 0.68421364 202.91537094 C0.71280787 227.57724356 2.19225473 248.60986412 20.2265625 267.30859375 C34.83728183 280.96419538 51.30439832 284.5023712 70.8125 285.375 C95.33805232 286.62363906 118.41392035 296.06907458 137 312 C138.20780136 312.97982279 139.41605042 313.9590943 140.625 314.9375 C141.40875 315.618125 142.1925 316.29875 143 317 C143 317.33 143 317.66 143 318 C125.34470477 318.09366637 107.68948768 318.16408801 90.0340004 318.20724869 C81.83524492 318.22782645 73.63664432 318.25585481 65.43798828 318.30175781 C58.28751667 318.34177293 51.13715728 318.36746756 43.9865768 318.37635398 C40.20444379 318.38154406 36.42263171 318.39364108 32.64060211 318.42292023 C29.07171336 318.45032221 25.5032739 318.45839581 21.93428993 318.45243073 C20.01854811 318.45403453 18.10285383 318.47542648 16.1872406 318.49768066 C1.6570381 318.42934829 -9.17326453 313.50048871 -19.75 303.6875 C-28.89862601 294.02102723 -32.47392309 282.70316463 -32.38768005 269.61502075 C-32.39306559 268.61855652 -32.39845113 267.62209228 -32.40399987 266.59543216 C-32.41821826 263.2824057 -32.41119076 259.96978225 -32.40405273 256.65673828 C-32.4097595 254.27081991 -32.41672495 251.88490428 -32.42485046 249.49899292 C-32.44090568 243.70636328 -32.44288928 237.91385835 -32.43763756 232.12121119 C-32.43358477 227.40948969 -32.43505254 222.69780015 -32.44038582 217.98608017 C-32.44113424 217.3137116 -32.44188266 216.64134303 -32.44265376 215.94859966 C-32.44418535 214.58237577 -32.4457237 213.21615188 -32.44726873 211.84992801 C-32.46097514 199.05732138 -32.45556929 186.26477602 -32.44408352 173.47217081 C-32.43415407 161.78937255 -32.44709008 150.10673274 -32.47101771 138.42395891 C-32.49544739 126.40475604 -32.50500704 114.38562684 -32.49836498 102.36639965 C-32.49488121 95.6278573 -32.49704886 88.88943671 -32.51461601 82.15091324 C-32.53011504 75.81260781 -32.52609636 69.47460421 -32.50731087 63.13631058 C-32.50363318 60.81603553 -32.50670939 58.49573797 -32.51719666 56.1754837 C-32.58622788 39.634191 -31.86540852 27.29796266 -21 14 C-20.48824219 13.36320312 -19.97648437 12.72640625 -19.44921875 12.0703125 C-15.54281514 7.70832335 -6.1844474 0 0 0 Z " fill="#CB3000" transform="translate(64,114)"/>
</svg>
