<svg xmlns="http://www.w3.org/2000/svg" version="1.1" xmlns:xlink="http://www.w3.org/1999/xlink" xmlns:svgjs="http://svgjs.dev/svgjs" width="1440" height="560" preserveAspectRatio="none" viewBox="0 0 1440 560"><g mask="url(&quot;#SvgjsMask1035&quot;)" fill="none"><path d="M41.31 -60.38L106.26 -22.88L106.26 52.12L41.31 89.62L-23.64 52.12L-23.64 -22.88zM41.31 164.62L106.26 202.12L106.26 277.12L41.31 314.62L-23.64 277.12L-23.64 202.12zM366.08 52.12L431.03 89.62L431.03 164.62L366.08 202.12L301.13 164.62L301.13 89.62zM431.03 -60.38L495.99 -22.88L495.99 52.12L431.03 89.62L366.08 52.12L366.08 -22.88zM431.03 389.62L495.99 427.12L495.99 502.12L431.03 539.62L366.08 502.12L366.08 427.12zM690.85 164.62L755.8 202.12L755.8 277.12L690.85 314.62L625.89 277.12L625.89 202.12zM690.85 389.62L755.8 427.12L755.8 502.12L690.85 539.62L625.89 502.12L625.89 427.12zM755.8 502.12L820.76 539.62L820.76 614.62L755.8 652.12L690.85 614.62L690.85 539.62zM1145.52 277.12L1210.48 314.62L1210.48 389.62L1145.52 427.12L1080.57 389.62L1080.57 314.62zM1145.52 502.12L1210.48 539.62L1210.48 614.62L1145.52 652.12L1080.57 614.62L1080.57 539.62zM1210.48 -60.38L1275.43 -22.88L1275.43 52.12L1210.48 89.62L1145.52 52.12L1145.52 -22.88zM1275.43 52.12L1340.38 89.62L1340.38 164.62L1275.43 202.12L1210.48 164.62L1210.48 89.62zM1405.34 502.12L1470.29 539.62L1470.29 614.62L1405.34 652.12L1340.38 614.62L1340.38 539.62zM1535.25 52.12L1600.2 89.62L1600.2 164.62L1535.25 202.12L1470.29 164.62L1470.29 89.62z" stroke="url(&quot;#SvgjsLinearGradient1036&quot;)" stroke-width="2"></path><path d="M33.81 -60.38 a7.5 7.5 0 1 0 15 0 a7.5 7.5 0 1 0 -15 0zM98.76 -22.88 a7.5 7.5 0 1 0 15 0 a7.5 7.5 0 1 0 -15 0zM98.76 52.12 a7.5 7.5 0 1 0 15 0 a7.5 7.5 0 1 0 -15 0zM33.81 89.62 a7.5 7.5 0 1 0 15 0 a7.5 7.5 0 1 0 -15 0zM-31.14 52.12 a7.5 7.5 0 1 0 15 0 a7.5 7.5 0 1 0 -15 0zM-31.14 -22.88 a7.5 7.5 0 1 0 15 0 a7.5 7.5 0 1 0 -15 0zM33.81 164.62 a7.5 7.5 0 1 0 15 0 a7.5 7.5 0 1 0 -15 0zM98.76 202.12 a7.5 7.5 0 1 0 15 0 a7.5 7.5 0 1 0 -15 0zM98.76 277.12 a7.5 7.5 0 1 0 15 0 a7.5 7.5 0 1 0 -15 0zM33.81 314.62 a7.5 7.5 0 1 0 15 0 a7.5 7.5 0 1 0 -15 0zM-31.14 277.12 a7.5 7.5 0 1 0 15 0 a7.5 7.5 0 1 0 -15 0zM-31.14 202.12 a7.5 7.5 0 1 0 15 0 a7.5 7.5 0 1 0 -15 0zM358.58 52.12 a7.5 7.5 0 1 0 15 0 a7.5 7.5 0 1 0 -15 0zM423.53 89.62 a7.5 7.5 0 1 0 15 0 a7.5 7.5 0 1 0 -15 0zM423.53 164.62 a7.5 7.5 0 1 0 15 0 a7.5 7.5 0 1 0 -15 0zM358.58 202.12 a7.5 7.5 0 1 0 15 0 a7.5 7.5 0 1 0 -15 0zM293.63 164.62 a7.5 7.5 0 1 0 15 0 a7.5 7.5 0 1 0 -15 0zM293.63 89.62 a7.5 7.5 0 1 0 15 0 a7.5 7.5 0 1 0 -15 0zM423.53 -60.38 a7.5 7.5 0 1 0 15 0 a7.5 7.5 0 1 0 -15 0zM488.49 -22.88 a7.5 7.5 0 1 0 15 0 a7.5 7.5 0 1 0 -15 0zM488.49 52.12 a7.5 7.5 0 1 0 15 0 a7.5 7.5 0 1 0 -15 0zM358.58 -22.88 a7.5 7.5 0 1 0 15 0 a7.5 7.5 0 1 0 -15 0zM423.53 389.62 a7.5 7.5 0 1 0 15 0 a7.5 7.5 0 1 0 -15 0zM488.49 427.12 a7.5 7.5 0 1 0 15 0 a7.5 7.5 0 1 0 -15 0zM488.49 502.12 a7.5 7.5 0 1 0 15 0 a7.5 7.5 0 1 0 -15 0zM423.53 539.62 a7.5 7.5 0 1 0 15 0 a7.5 7.5 0 1 0 -15 0zM358.58 502.12 a7.5 7.5 0 1 0 15 0 a7.5 7.5 0 1 0 -15 0zM358.58 427.12 a7.5 7.5 0 1 0 15 0 a7.5 7.5 0 1 0 -15 0zM683.35 164.62 a7.5 7.5 0 1 0 15 0 a7.5 7.5 0 1 0 -15 0zM748.3 202.12 a7.5 7.5 0 1 0 15 0 a7.5 7.5 0 1 0 -15 0zM748.3 277.12 a7.5 7.5 0 1 0 15 0 a7.5 7.5 0 1 0 -15 0zM683.35 314.62 a7.5 7.5 0 1 0 15 0 a7.5 7.5 0 1 0 -15 0zM618.39 277.12 a7.5 7.5 0 1 0 15 0 a7.5 7.5 0 1 0 -15 0zM618.39 202.12 a7.5 7.5 0 1 0 15 0 a7.5 7.5 0 1 0 -15 0zM683.35 389.62 a7.5 7.5 0 1 0 15 0 a7.5 7.5 0 1 0 -15 0zM748.3 427.12 a7.5 7.5 0 1 0 15 0 a7.5 7.5 0 1 0 -15 0zM748.3 502.12 a7.5 7.5 0 1 0 15 0 a7.5 7.5 0 1 0 -15 0zM683.35 539.62 a7.5 7.5 0 1 0 15 0 a7.5 7.5 0 1 0 -15 0zM618.39 502.12 a7.5 7.5 0 1 0 15 0 a7.5 7.5 0 1 0 -15 0zM618.39 427.12 a7.5 7.5 0 1 0 15 0 a7.5 7.5 0 1 0 -15 0zM813.26 539.62 a7.5 7.5 0 1 0 15 0 a7.5 7.5 0 1 0 -15 0zM813.26 614.62 a7.5 7.5 0 1 0 15 0 a7.5 7.5 0 1 0 -15 0zM748.3 652.12 a7.5 7.5 0 1 0 15 0 a7.5 7.5 0 1 0 -15 0zM683.35 614.62 a7.5 7.5 0 1 0 15 0 a7.5 7.5 0 1 0 -15 0zM1138.02 277.12 a7.5 7.5 0 1 0 15 0 a7.5 7.5 0 1 0 -15 0zM1202.98 314.62 a7.5 7.5 0 1 0 15 0 a7.5 7.5 0 1 0 -15 0zM1202.98 389.62 a7.5 7.5 0 1 0 15 0 a7.5 7.5 0 1 0 -15 0zM1138.02 427.12 a7.5 7.5 0 1 0 15 0 a7.5 7.5 0 1 0 -15 0zM1073.07 389.62 a7.5 7.5 0 1 0 15 0 a7.5 7.5 0 1 0 -15 0zM1073.07 314.62 a7.5 7.5 0 1 0 15 0 a7.5 7.5 0 1 0 -15 0zM1138.02 502.12 a7.5 7.5 0 1 0 15 0 a7.5 7.5 0 1 0 -15 0zM1202.98 539.62 a7.5 7.5 0 1 0 15 0 a7.5 7.5 0 1 0 -15 0zM1202.98 614.62 a7.5 7.5 0 1 0 15 0 a7.5 7.5 0 1 0 -15 0zM1138.02 652.12 a7.5 7.5 0 1 0 15 0 a7.5 7.5 0 1 0 -15 0zM1073.07 614.62 a7.5 7.5 0 1 0 15 0 a7.5 7.5 0 1 0 -15 0zM1073.07 539.62 a7.5 7.5 0 1 0 15 0 a7.5 7.5 0 1 0 -15 0zM1202.98 -60.38 a7.5 7.5 0 1 0 15 0 a7.5 7.5 0 1 0 -15 0zM1267.93 -22.88 a7.5 7.5 0 1 0 15 0 a7.5 7.5 0 1 0 -15 0zM1267.93 52.12 a7.5 7.5 0 1 0 15 0 a7.5 7.5 0 1 0 -15 0zM1202.98 89.62 a7.5 7.5 0 1 0 15 0 a7.5 7.5 0 1 0 -15 0zM1138.02 52.12 a7.5 7.5 0 1 0 15 0 a7.5 7.5 0 1 0 -15 0zM1138.02 -22.88 a7.5 7.5 0 1 0 15 0 a7.5 7.5 0 1 0 -15 0zM1332.88 89.62 a7.5 7.5 0 1 0 15 0 a7.5 7.5 0 1 0 -15 0zM1332.88 164.62 a7.5 7.5 0 1 0 15 0 a7.5 7.5 0 1 0 -15 0zM1267.93 202.12 a7.5 7.5 0 1 0 15 0 a7.5 7.5 0 1 0 -15 0zM1202.98 164.62 a7.5 7.5 0 1 0 15 0 a7.5 7.5 0 1 0 -15 0zM1397.84 502.12 a7.5 7.5 0 1 0 15 0 a7.5 7.5 0 1 0 -15 0zM1462.79 539.62 a7.5 7.5 0 1 0 15 0 a7.5 7.5 0 1 0 -15 0zM1462.79 614.62 a7.5 7.5 0 1 0 15 0 a7.5 7.5 0 1 0 -15 0zM1397.84 652.12 a7.5 7.5 0 1 0 15 0 a7.5 7.5 0 1 0 -15 0zM1332.88 614.62 a7.5 7.5 0 1 0 15 0 a7.5 7.5 0 1 0 -15 0zM1332.88 539.62 a7.5 7.5 0 1 0 15 0 a7.5 7.5 0 1 0 -15 0zM1527.75 52.12 a7.5 7.5 0 1 0 15 0 a7.5 7.5 0 1 0 -15 0zM1592.7 89.62 a7.5 7.5 0 1 0 15 0 a7.5 7.5 0 1 0 -15 0zM1592.7 164.62 a7.5 7.5 0 1 0 15 0 a7.5 7.5 0 1 0 -15 0zM1527.75 202.12 a7.5 7.5 0 1 0 15 0 a7.5 7.5 0 1 0 -15 0zM1462.79 164.62 a7.5 7.5 0 1 0 15 0 a7.5 7.5 0 1 0 -15 0zM1462.79 89.62 a7.5 7.5 0 1 0 15 0 a7.5 7.5 0 1 0 -15 0z" fill="url(&quot;#SvgjsLinearGradient1036&quot;)"></path><path d="M30.41 -18.59L73.71 6.41L73.71 56.41L30.41 81.41L-12.89 56.41L-12.89 6.41zM73.71 356.41L117.02 381.41L117.02 431.41L73.71 456.41L30.41 431.41L30.41 381.41zM160.32 356.41L203.62 381.41L203.62 431.41L160.32 456.41L117.02 431.41L117.02 381.41zM117.02 431.41L160.32 456.41L160.32 506.41L117.02 531.41L73.71 506.41L73.71 456.41zM246.92 356.41L290.23 381.41L290.23 431.41L246.92 456.41L203.62 431.41L203.62 381.41zM246.92 506.41L290.23 531.41L290.23 581.41L246.92 606.41L203.62 581.41L203.62 531.41zM290.23 -18.59L333.53 6.41L333.53 56.41L290.23 81.41L246.92 56.41L246.92 6.41zM333.53 56.41L376.83 81.41L376.83 131.41L333.53 156.41L290.23 131.41L290.23 81.41zM290.23 131.41L333.53 156.41L333.53 206.41L290.23 231.41L246.92 206.41L246.92 156.41zM290.23 431.41L333.53 456.41L333.53 506.41L290.23 531.41L246.92 506.41L246.92 456.41zM376.83 -18.59L420.13 6.41L420.13 56.41L376.83 81.41L333.53 56.41L333.53 6.41zM420.13 56.41L463.44 81.41L463.44 131.41L420.13 156.41L376.83 131.41L376.83 81.41zM376.83 281.41L420.13 306.41L420.13 356.41L376.83 381.41L333.53 356.41L333.53 306.41zM420.13 506.41L463.44 531.41L463.44 581.41L420.13 606.41L376.83 581.41L376.83 531.41zM463.44 281.41L506.74 306.41L506.74 356.41L463.44 381.41L420.13 356.41L420.13 306.41zM463.44 431.41L506.74 456.41L506.74 506.41L463.44 531.41L420.13 506.41L420.13 456.41zM550.04 -18.59L593.34 6.41L593.34 56.41L550.04 81.41L506.74 56.41L506.74 6.41zM550.04 131.41L593.34 156.41L593.34 206.41L550.04 231.41L506.74 206.41L506.74 156.41zM550.04 281.41L593.34 306.41L593.34 356.41L550.04 381.41L506.74 356.41L506.74 306.41zM550.04 431.41L593.34 456.41L593.34 506.41L550.04 531.41L506.74 506.41L506.74 456.41zM593.34 506.41L636.64 531.41L636.64 581.41L593.34 606.41L550.04 581.41L550.04 531.41zM636.64 431.41L679.95 456.41L679.95 506.41L636.64 531.41L593.34 506.41L593.34 456.41zM679.95 506.41L723.25 531.41L723.25 581.41L679.95 606.41L636.64 581.41L636.64 531.41zM766.55 356.41L809.86 381.41L809.86 431.41L766.55 456.41L723.25 431.41L723.25 381.41zM723.25 431.41L766.55 456.41L766.55 506.41L723.25 531.41L679.95 506.41L679.95 456.41zM809.86 -18.59L853.16 6.41L853.16 56.41L809.86 81.41L766.55 56.41L766.55 6.41zM853.16 56.41L896.46 81.41L896.46 131.41L853.16 156.41L809.86 131.41L809.86 81.41zM809.86 131.41L853.16 156.41L853.16 206.41L809.86 231.41L766.55 206.41L766.55 156.41zM853.16 206.41L896.46 231.41L896.46 281.41L853.16 306.41L809.86 281.41L809.86 231.41zM853.16 356.41L896.46 381.41L896.46 431.41L853.16 456.41L809.86 431.41L809.86 381.41zM853.16 506.41L896.46 531.41L896.46 581.41L853.16 606.41L809.86 581.41L809.86 531.41zM939.76 56.41L983.07 81.41L983.07 131.41L939.76 156.41L896.46 131.41L896.46 81.41zM939.76 506.41L983.07 531.41L983.07 581.41L939.76 606.41L896.46 581.41L896.46 531.41zM1026.37 506.41L1069.67 531.41L1069.67 581.41L1026.37 606.41L983.07 581.41L983.07 531.41zM1069.67 281.41L1112.97 306.41L1112.97 356.41L1069.67 381.41L1026.37 356.41L1026.37 306.41zM1069.67 431.41L1112.97 456.41L1112.97 506.41L1069.67 531.41L1026.37 506.41L1026.37 456.41zM1156.28 131.41L1199.58 156.41L1199.58 206.41L1156.28 231.41L1112.97 206.41L1112.97 156.41zM1199.58 356.41L1242.88 381.41L1242.88 431.41L1199.58 456.41L1156.28 431.41L1156.28 381.41zM1156.28 431.41L1199.58 456.41L1199.58 506.41L1156.28 531.41L1112.97 506.41L1112.97 456.41zM1286.18 56.41L1329.49 81.41L1329.49 131.41L1286.18 156.41L1242.88 131.41L1242.88 81.41zM1286.18 206.41L1329.49 231.41L1329.49 281.41L1286.18 306.41L1242.88 281.41L1242.88 231.41zM1372.79 206.41L1416.09 231.41L1416.09 281.41L1372.79 306.41L1329.49 281.41L1329.49 231.41zM1416.09 131.41L1459.39 156.41L1459.39 206.41L1416.09 231.41L1372.79 206.41L1372.79 156.41z" stroke="url(&quot;#SvgjsLinearGradient1037&quot;)" stroke-width="2"></path></g><defs><mask id="SvgjsMask1035"><rect width="1440" height="560" fill="#ffffff"></rect></mask><linearGradient x1="220.03199999999998" y1="-220.02399999999997" x2="1219.9679999999998" y2="780.024" gradientUnits="userSpaceOnUse" id="SvgjsLinearGradient1036"><stop stop-color="rgba(186, 27, 29, 1)" offset="0.01"></stop><stop stop-color="rgba(248, 178, 0, 1)" offset="1"></stop></linearGradient><linearGradient x1="220.03199999999998" y1="-220.02399999999997" x2="1219.9679999999998" y2="780.024" gradientUnits="userSpaceOnUse" id="SvgjsLinearGradient1037"><stop stop-color="rgba(248, 178, 0, 1)" offset="0.01"></stop><stop stop-color="rgba(186, 27, 29, 1)" offset="1"></stop></linearGradient></defs></svg>